SplineFontDB: 3.0
FontName: Career
FullName: Career
FamilyName: Career
Weight: Medium
Copyright: Created by Antoine Gelgon with FontForge 2.0 (http://fontforge.sf.net)
UComments: "2014-5-9: Created." 
FontLog: "FontLog Career Caslon+AAoACgAK-14/08/2014 : Antoine Gelgon+AAoA--Modified vector of 's'+AAoA--creation of the 'C' and 'R'+AAoA" 
Version: 001.000
ItalicAngle: 0
UnderlinePosition: -100
UnderlineWidth: 50
Ascent: 800
Descent: 200
UFOAscent: 800
UFODescent: -200
LayerCount: 2
Layer: 0 0 "Arri+AOgA-re"  1
Layer: 1 0 "Avant"  0
FSType: 8
OS2Version: 0
OS2_WeightWidthSlopeOnly: 0
OS2_UseTypoMetrics: 0
CreationTime: 1407112779
ModificationTime: 1408033065
PfmFamily: 17
TTFWeight: 500
TTFWidth: 5
LineGap: 90
VLineGap: 0
OS2TypoAscent: 0
OS2TypoAOffset: 1
OS2TypoDescent: 0
OS2TypoDOffset: 1
OS2TypoLinegap: 90
OS2WinAscent: 0
OS2WinAOffset: 1
OS2WinDescent: 0
OS2WinDOffset: 1
HheadAscent: 0
HheadAOffset: 1
HheadDescent: 0
HheadDOffset: 1
OS2Vendor: 'PfEd'
MarkAttachClasses: 1
DEI: 91125
LangName: 1033 "" "" "" "" "" "Version 001.000" 
Encoding: UnicodeBmp
UnicodeInterp: none
NameList: Adobe Glyph List
DisplaySize: -24
AntiAlias: 1
FitToEm: 1
WinInfo: 48 48 16
BeginPrivate: 0
EndPrivate
Grid
-1000 -10 m 0
 2000 -10 l 0
-1000 0 m 0
 2000 0 l 0
-1000 510 m 0
 2000 510 l 0
-1000 500 m 0
 2000 500 l 0
-1000 274 m 1
 -0.986043 271.044 999.743 273.226 2000 274 c 1
EndSplineSet
TeXData: 1 0 0 209715 104857 69905 524288 1048576 69905 783286 444596 497025 792723 393216 433062 380633 303038 157286 324010 404750 52429 2506097 1059062 262144
BeginChars: 65536 34

StartChar: a
Encoding: 97 97 0
Width: 500
VWidth: 0
GlyphClass: 2
Flags: W
HStem: -10 45<98 220.47> 489 21<216.437 321.5>
VStem: 10 149<283.729 369.922> 12 138<50.5949 153.83> 292 134<35.1406 458.683> 302 8<93 118>
LayerCount: 2
Back
SplineSet
835 118 m 5xc140
 835 82.6667 815.167 52.5 775.5 27.5 c 0
 735.833 2.5 695 -10 653 -10 c 0
 622.333 -10 595.333 -0.333333 572 19 c 0
 548.667 38.3333 537 62.3333 537 91 c 1
 536.333 109.667 540.167 126.833 548.5 142.5 c 0
 556.833 158.167 569.333 172 586 184 c 0
 602.669 196 617.336 205.5 630 212.5 c 0
 642.667 219.5 658.797 227.36 678.39 236.08 c 0
 682.13 238.027 685 239.333 687 240 c 0
 705 248 734.5 260 775.5 276 c 0
 816.5 292 840 301.333 846 304 c 1
 848 292 849.333 285.667 850 285 c 1
 845.333 283.667 835.167 280.333 819.5 275 c 0
 803.833 269.667 793.667 266.167 789 264.5 c 0
 784.333 262.833 775.5 259.5 762.5 254.5 c 0
 749.5 249.5 740.833 245.167 736.5 241.5 c 0
 732.15 237.833 725.317 233 716 227 c 0
 706.666 221 700.333 214.833 697 208.5 c 0
 693.667 202.166 689.667 194.833 685 186.5 c 0
 680.333 178.166 677.333 168.833 676 158.5 c 0
 674.667 148.167 674.333 137 675 125 c 1
 675 112.333 675.833 101.333 677.5 92 c 0
 679.167 82.6667 682.167 73.3333 686.5 64 c 0
 690.833 54.6667 697.333 47.5 706 42.5 c 0
 714.668 37.5 725.335 35 738 35 c 0
 755.333 35 774.5 46.1667 795.5 68.5 c 0
 816.5 90.8333 827 111 827 129 c 1
 835 118 l 5xc140
684 363 m 5xc280
 684 330.333 676.833 303.666 662.5 283 c 0
 648.167 262.333 627.333 252.333 600 253 c 0
 582 253 566.5 258.5 553.5 269.5 c 0
 540.5 280.5 534.333 294.333 535 311 c 1
 535 333.667 548 361 574 393 c 1
 600 423.667 634.667 450.833 678 474.5 c 0
 721.333 498.167 765.667 510 811 510 c 0
 881 510 925.333 483.333 944 430 c 1
 948.667 414 951 399.667 951 387 c 2
 951 62 l 2
 951 47.3333 958.667 37.6667 974 33 c 0
 982.667 31 994 35 1008 45 c 1
 1015 40 l 1
 1005.66 28 991.33 16.6667 972 6 c 0
 952.667 -4.66667 933.667 -10 915 -10 c 0
 885 -10 861.167 -3.16667 843.5 10.5 c 0
 825.833 24.1667 817 44 817 70 c 2
 817 430 l 2
 817 449.333 814.333 463.833 809 473.5 c 0
 803.648 483.167 793.315 488.333 778 489 c 1
 749.333 489 726.333 482.5 709 469.5 c 0
 691.667 456.5 683 436.667 683 410 c 2
 684 363 l 5xc280
EndSplineSet
Fore
SplineSet
310 118 m 1xd4
 310 43 205 -10 128 -10 c 0
 68 -10 12 32 12 91 c 1
 10 175 103 213 162 240 c 0
 208 261 272 284 321 304 c 1
 323 292 324 286 325 285 c 1
 231 253 146 236 150 125 c 0
 151 81 159 35 213 35 c 0
 248 35 302 93 302 129 c 1
 310 118 l 1xd4
159 363 m 1xe8
 159 302 132 252 75 253 c 0
 40 253 9 277 10 311 c 0
 10 334 23 361 49 393 c 0
 94 446 187 510 286 510 c 0
 357 510 401 482 419 430 c 0
 423 416 426 402 426 387 c 2
 426 62 l 2
 426 46 435 37 449 33 c 0
 457 31 469 35 483 45 c 1
 490 40 l 1
 474 19 430 -10 390 -10 c 0
 331 -10 292 17 292 70 c 2
 292 430 l 2
 292 463 287 488 253 489 c 5
 198 489 158 465 158 410 c 5
 159 363 l 1xe8
EndSplineSet
Validated: 37
EndChar

StartChar: o
Encoding: 111 111 1
Width: 556
VWidth: 0
GlyphClass: 2
Flags: W
PickledData: "(dp1
S'com.fontlab.hintData'
p2
(dp3
S'vhints'
p4
((dp5
S'position'
p6
I10
sS'width'
p7
I162
s(dp8
g6
I384
sg7
I162
stp9
sS'hhints'
p10
((dp11
g6
I-12
sg7
I20
s(dp12
g6
I491
sg7
I17
stp13
ss."
HStem: -10 19<233.782 320.466> 493 17<235.504 318.729>
VStem: 10 162<145.16 356.074> 383 163<144.991 353.681>
LayerCount: 2
Back
SplineSet
795 252 m 4
 795 180.667 798.667 129.333 806 98 c 0
 814 64.6666 825 41.3333 839 28 c 1
 855 15.3333 875.333 9 900 9 c 0
 925.333 9 946 15.3333 962 28 c 1
 976 41.3333 987 64.6667 995 98 c 1
 1002.33 133.333 1006 184.667 1006 252 c 0
 1006 316.667 1002.33 367.333 995 404 c 1
 987 437.333 976 460.667 962 474 c 1
 946 486.667 925.333 493 900 493 c 0
 875.333 493 855 486.667 839 474 c 1
 825 460.667 814 437.333 806 404 c 0
 798.667 372 795 321.333 795 252 c 4
633 251 m 4
 633 324.333 659 386 711 436 c 1
 763.667 485.333 826.667 510 900 510 c 0
 974 510 1037.33 485.333 1090 436 c 1
 1142 386 1168.33 324.333 1169 251 c 1
 1168.33 175 1142 112.667 1090 64 c 1
 1038.67 14.6667 975.333 -10 900 -10 c 0
 825.333 -10 762.333 14.6667 711 64 c 1
 659 112.667 633 175 633 251 c 4
EndSplineSet
Fore
SplineSet
277 493 m 0
 170.209 493 172 373.878 172 252 c 0
 172 127.969 169.678 9 277 9 c 0
 385.293 9 383 127.198 383 252 c 0
 383 374.787 384.714 493 277 493 c 0
10 251 m 0
 10 325 36 386 88 436 c 0
 140 485 203 510 277 510 c 0
 351 510 415 485 467 436 c 0
 519 386 545 325 546 251 c 1
 545 175 519 113 467 64 c 0
 415 14 351 -10 277 -10 c 0
 203 -10 140 14 88 64 c 0
 36 113 10 175 10 251 c 0
EndSplineSet
EndChar

StartChar: r
Encoding: 114 114 2
Width: 453
VWidth: 0
GlyphClass: 2
Flags: W
PickledData: "(dp1
S'com.fontlab.hintData'
p2
(dp3
S'vhints'
p4
((dp5
S'position'
p6
I97
sS'width'
p7
I134
stp8
sS'hhints'
p9
((dp10
g6
I0
sg7
I8
s(dp11
g6
I480
sg7
I20
stp12
ss."
HStem: 0 8<37 49.3488 279.455 291> 414 96<270.5 393.5> 480 20G<210.5 231>
VStem: 96 135<22.1807 392.201>
LayerCount: 2
Fore
SplineSet
231 59 m 2xb0
 231 46 235 35 246 27 c 0
 255 20 265 15 276 12 c 2
 291 8 l 1
 291 0 l 1
 209 10 125 10 37 0 c 1
 37 2 37 5 36 8 c 1
 51 12 l 2
 62 14 72 19 81 27 c 1
 92 35 97 44 96 54 c 1
 97 320 l 2
 97 350 89 375 73 394 c 0
 57 413 36 426 10 433 c 1
 10 439 l 1
 64 447 106 455 137 463 c 0
 168 471 197 483 224 500 c 1
 231 499 l 1
 231 59 l 2xb0
288 414 m 4xd0
 259 414 226 311 212 291 c 5
 218 348 l 5
 254 400 282 510 370 510 c 4
 417 510 443 474 443 427 c 4
 443 383 415 346 377 346 c 4
 342 346 316 365 299 404 c 4
 297 411 293 414 288 414 c 4xd0
EndSplineSet
Validated: 37
EndChar

StartChar: d
Encoding: 100 100 3
Width: 574
VWidth: 0
GlyphClass: 2
Flags: W
PickledData: "(dp1
S'com.fontlab.hintData'
p2
(dp3
S'vhints'
p4
((dp5
S'position'
p6
I10
sS'width'
p7
I145
s(dp8
g6
I366
sg7
I29
s(dp9
g6
I367
sg7
I137
stp10
sS'hhints'
p11
((dp12
g6
I-8
sg7
I51
s(dp13
g6
I36
sg7
I9
s(dp14
g6
I483
sg7
I24
stp15
ss."
HStem: -10 51<229.315 308.131> 36 12<537.452 562.996> 486 24<219.53 311.786>
VStem: 10 144<143.378 344.981> 366 28<73 242 361 448> 563 1<38.0469 40.8594 43 44.907>
LayerCount: 2
Fore
SplineSet
436 108 m 0,0,-1
205 -10 m 4,1,-1
 78 -10 10 101 10 232 c 0,4,-1
 10 383 111 510 262 510 c 0,7,-1
 346 510 397 448 395 361 c 1,10,-1
 394 242 l 1,11,-1
 394 73 358 -10 205 -10 c 4,1,-1
366 248 m 0,14,-1
 366 361 377 486 263 486 c 0,17,-1
 191 486 154 413 154 273 c 0,20,-1
 154 174 193 42 286 41 c 5,23,-1
 376 39 366 159 366 248 c 0,14,-1
280 739 m 1,26,-1
 323 746 353 751 369 754 c 0,29,-1
 385 757 405 762 428 770 c 0,32,-1
 452 778 474 788 494 801 c 1,35,-1
 501 800 l 1,36,-1
 503 108 l 2,37,-1
 503 93 508 81 518 70 c 0,40,-1
 528 60 538 52 548 48 c 0,43,-1
 558 44 563 43 563 45 c 1,46,-1
 564 43 564 42 564 41 c 0,49,-1
 564 40 564 39 563 38 c 0,52,-1
 563 37 562 36 562 36 c 1,55,-1
 541 38 508 34 463 24 c 0,58,-1
 419 14 388 4 372 -4 c 1,61,-1
 365 0 l 1,62,-1
 367 620 l 2,63,-1
 367 651 360 676 344 695 c 0,66,-1
 329 714 307 727 281 733 c 1,69,-1
 280 739 l 1,26,-1
EndSplineSet
Validated: 37
EndChar

StartChar: s
Encoding: 115 115 4
Width: 425
VWidth: 0
GlyphClass: 2
Flags: W
PickledData: "(dp1
S'com.fontlab.hintData'
p2
(dp3
S'vhints'
p4
((dp5
S'position'
p6
I47
sS'width'
p7
I8
stp8
sS'hhints'
p9
((dp10
g6
I-12
sg7
I18
s(dp11
g6
I490
sg7
I21
stp12
ss."
LayerCount: 2
Back
SplineSet
217 173 m 5
 179 199 87 219 49 278 c 4
 -28 397 104.995 509 213 509 c 5
 306 509 339 467 339 467 c 5
 354 324 l 5
 346 324 l 5
 282 443 220 489 178 488 c 4
 120 486 92 410 184 362 c 5
 276 323 l 5
 276 323 396 272 396 151 c 4
 396 65 311 -11 213 -11 c 4
 123 -11 43 36 43 36 c 5
 46 216 l 5
 54 216 l 5
 74 127 166 7 234 7 c 4
 303 7 330 106 217 173 c 5
EndSplineSet
Fore
SplineSet
124.25 436.75 m 17
 124.25 328 396 351.333 396 151.002 c 1
 396 65 311 -10 213 -10 c 0
 123 -10 43 36 43 36 c 1
 46 216 l 1
 54 216 l 1
 74 127 166 8 234 8 c 0
 293.713 8 294.047 69 294.047 69 c 1
 293.713 205 25.8333 189.5 25.833 348.167 c 0
 25.8329 421.5 104.995 510 213 510 c 1
 306 510 339 467 339 467 c 1
 354 324 l 1
 346 324 l 1
 282 443 223.012 489 181 489 c 0
 127.25 489 124.25 436.75 124.25 436.75 c 17
EndSplineSet
EndChar

StartChar: e
Encoding: 101 101 5
Width: 523
VWidth: 0
GlyphClass: 2
Flags: W
PickledData: "(dp1
S'com.fontlab.hintData'
p2
(dp3
S'vhints'
p4
((dp5
S'position'
p6
I10
sS'width'
p7
I343
stp8
sS'hhints'
p9
((dp10
g6
I-11
sg7
I100
s(dp11
g6
I288
sg7
I18
s(dp12
g6
I491
sg7
I17
stp13
ss."
HStem: -11 100<254.309 364.633> 288 18<127 484> 493 17<231.113 300.059>
VStem: 10 343<288 384>
LayerCount: 2
Fore
SplineSet
10 249 m 0
 10 396 123 510 270 510 c 4
 402 510 487 384 487 288 c 1
 353 288 l 1
 353 384 350 493 270 493 c 4
 88 493 112 89 336 89 c 0
 373 89 432 93 476 163 c 1
 486 162 l 1
 486 162 440 -11 269 -11 c 0
 121 -11 10 100 10 249 c 0
487 288 m 1
 127 288 l 1
 119 306 l 1
 484 306 l 1
 487 288 l 1
EndSplineSet
EndChar

StartChar: n
Encoding: 110 110 7
Width: 611
VWidth: 0
GlyphClass: 2
Flags: W
PickledData: "(dp1
S'com.fontlab.hintData'
p2
(dp3
S'vhints'
p4
((dp5
S'position'
p6
I97
sS'width'
p7
I134
s(dp8
g6
I213
sg7
I18
s(dp9
g6
I407
sg7
I134
stp10
sS'hhints'
p11
((dp12
g6
I0
sg7
I8
s(dp13
g6
I433
sg7
I6
s(dp14
g6
I480
sg7
I20
stp15
ss."
HStem: 0 8<37 49.3488 279.455 291 346 358.355 588.583 600> 433 6<10 18.9637> 480 20G<191.5 231>
VStem: 96 135<22.2129 393.474> 212 19<374 410> 406 135<22.1807 421.89>
LayerCount: 2
Fore
SplineSet
540 365 m 2xec
 541 59 l 1
 540 46 545 35 556 27 c 0
 565 20 575 15 586 12 c 2
 601 8 l 1
 600 5 600 2 600 0 c 1
 519 10 434 10 346 0 c 1
 346 8 l 1
 361 12 l 2
 371 14 381 19 391 27 c 0
 401 35 406 44 406 54 c 2
 406 316 l 2
 406 575 212 374 212 374 c 1
 212 410 l 1
 454 597 540 492 540 365 c 2xec
10 439 m 1
 107 454 159 460 224 500 c 1
 231 499 l 1xec
 231 59 l 1
 230 33 255 17 276 12 c 2
 291 8 l 1
 291 0 l 1
 209 10 125 10 37 0 c 1
 37 2 37 5 36 8 c 1
 51 12 l 2
 69 16 97 33 96 54 c 1xf4
 97 320 l 2
 97 383 61 420 10 433 c 1
 10 439 l 1
EndSplineSet
Validated: 37
EndChar

StartChar: f
Encoding: 102 102 8
Width: 354
VWidth: 0
GlyphClass: 2
Flags: W
PickledData: "(dp1
S'com.fontlab.hintData'
p2
(dp3
S'vhints'
p4
((dp5
S'position'
p6
I70
sS'width'
p7
I133
s(dp8
g6
I223
sg7
I121
stp9
sS'hhints'
p10
((dp11
g6
I0
sg7
I8
s(dp12
g6
I434
sg7
I7
s(dp13
g6
I637
sg7
I170
stp14
ss."
HStem: 0 8<10 22.3488 252.455 264> 434 7<70 203> 637 170<236.297 301.947>
VStem: 70 133<27.3866 441> 223 121<650.434 762.861>
LayerCount: 2
Fore
SplineSet
289 434 m 1
 14 434 l 1
 14 443 l 1
 95 555 120 807 248 807 c 0
 306 807 344 744 344 701 c 1
 343 662 318 637 287 637 c 0
 254 637 223 650 223 696 c 0
 223 721 230 720 229 744 c 1
 229 806 170 771 170 720 c 0
 170 628 206 542 206 480 c 1
 302 480 l 1
 289 434 l 1
70 441 m 1
 203 441 l 1
 203 59 l 1
 203 59 208 35 219 27 c 0
 228 20 238 15 249 12 c 2
 264 8 l 1
 264 0 l 1
 182 10 98 10 10 0 c 1
 10 8 l 1
 25 12 l 2
 35 14 45 19 55 27 c 0
 65 35 70 44 70 54 c 2
 70 441 l 1
EndSplineSet
Validated: 37
EndChar

StartChar: c
Encoding: 99 99 9
Width: 496
VWidth: 0
GlyphClass: 2
Flags: W
PickledData: "(dp1
S'com.fontlab.hintData'
p2
(dp3
S'vhints'
p4
((dp5
S'position'
p6
I329
sS'width'
p7
I132
stp8
sS'hhints'
p9
((dp10
g6
I-11
sg7
I100
s(dp11
g6
I491
sg7
I17
stp12
ss."
HStem: -10 100<254.309 364.633> 493 17<231.592 299.581>
VStem: 329 132<270.951 408.633>
LayerCount: 2
Fore
SplineSet
329 368 m 1
 350 465 304 494 270 493 c 5
 88 493 112 90 336 90 c 0
 373 90 432 93 476 163 c 1
 486 162 l 1
 486 162 440 -10 269 -10 c 0
 121 -10 10 100 10 249 c 1
 11 397 125 510 272 510 c 4
 394 510 461 407 461 330 c 0
 461 268 423 254 393 254 c 0
 349 254 313 300 329 368 c 1
EndSplineSet
EndChar

StartChar: p
Encoding: 112 112 10
Width: 580
VWidth: 0
GlyphClass: 2
Flags: W
PickledData: "(dp1
S'com.fontlab.hintData'
p2
(dp3
S'vhints'
p4
((dp5
S'position'
p6
I97
sS'width'
p7
I134
s(dp8
g6
I202
sg7
I29
s(dp9
g6
I418
sg7
I152
stp10
sS'hhints'
p11
((dp12
g6
I-112
sg7
I8
s(dp13
g6
I-11
sg7
I19
s(dp14
g6
I434
sg7
I6
s(dp15
g6
I437
sg7
I63
stp16
ss."
HStem: -111 8<37 49.3488 279.455 291> -11 19<278.254 348.085> 433 6<10 18.9637> 447 63<250 450> 480 20G<191.5 231>
VStem: 96 135<-88.2919 -52 130 393.474> 202 29<42 415> 418 152<154.711 353.119>
LayerCount: 2
Fore
SplineSet
10 439 m 1xed
 107 454 159 461 224 500 c 1
 231 499 l 1xeb
 231 -52 l 1
 230 -78 255 -93 276 -99 c 2
 291 -103 l 1
 291 -111 l 1
 209 -101 125 -101 37 -111 c 1
 37 -109 37 -106 36 -103 c 1
 51 -99 l 2
 69 -95 97 -78 96 -57 c 1
 97 320 l 2
 97 383 61 420 10 433 c 1
 10 439 l 1xed
386 510 m 4xf3
 514 510 570 397 570 267 c 4
 570 120 467 -11 321 -11 c 4
 237 -11 200 42 202 130 c 5
 203 249 l 5
 201 415 266 510 386 510 c 4xf3
231 243 m 4xf5
 231 130 213 8 319 8 c 4
 396 8 418 159 418 224 c 4
 418 407 324 447 292 447 c 4
 208 447 231 251 231 243 c 4xf5
EndSplineSet
Validated: 37
EndChar

StartChar: b
Encoding: 98 98 11
Width: 622
VWidth: 0
GlyphClass: 2
Flags: W
PickledData: "(dp1
S'com.fontlab.hintData'
p2
(dp3
S'vhints'
p4
((dp5
S'position'
p6
I95
sS'width'
p7
I7
s(dp8
g6
I203
sg7
I30
s(dp9
g6
I444
sg7
I145
stp10
sS'hhints'
p11
((dp12
g6
I-4
sg7
I24
s(dp13
g6
I460
sg7
I51
stp14
ss."
HStem: -11 23<228.391 334.972> 460 51<243.207 326.097> 733 6<-32 -23.2302>
VStem: 53 7<0 3.65702> 160 30<52 429> 401 145<154.332 358.528>
LayerCount: 2
Fore
SplineSet
-11 739 m 1
 83.8418 754.807 136.605 759.898 203 801 c 1
 210 800 l 1
 211 101 l 1
 206 52 241 13 315 -11 c 1
 202 -11 189.667 52.9971 140 53 c 0
 106.333 53 81 -2.33301 81 -4 c 1
 74 0 l 1
 76 620 l 2
 76 682.312 40.9824 721.448 -11 733 c 1
 -11 739 l 1
145 107 m 0
371 511 m 0
 499 511 567 401 567 271 c 0
 567 119 467 -11 315 -11 c 0
 232 -11 180 47 181 135 c 2
 182 261 l 1
 182 429 219 511 371 511 c 0
211 255 m 0
 211 141 200 12 313 12 c 0
 386 12 422 89 422 230 c 0
 422 328 384 458 290 460 c 0
 201 461 211 343 211 255 c 0
EndSplineSet
EndChar

StartChar: g
Encoding: 103 103 12
Width: 502
VWidth: 0
GlyphClass: 2
Flags: W
PickledData: "(dp1
S'com.fontlab.hintData'
p2
(dp3
S'vhints'
p4
((dp5
S'position'
p6
I10
sS'width'
p7
I60
s(dp8
g6
I29
sg7
I152
s(dp9
g6
I300
sg7
I152
stp10
sS'hhints'
p11
((dp12
g6
I-112
sg7
I17
s(dp13
g6
I0
sg7
I142
s(dp14
g6
I189
sg7
I14
s(dp15
g6
I500
sg7
I7
s(dp16
g6
I523
sg7
I139
stp17
ss."
HStem: -114 18<132.599 348.013> 0 142<138.417 372.19> 192 14<193.639 261.642> 500 10<231.476 250> 523 139<311.681 423.64>
VStem: 10 60<-71.0946 -1.45973> 29 152<275.953 417.609> 300 152<274.972 417.792>
LayerCount: 2
Fore
SplineSet
163 207 m 1xfd
 42 155 24 120 25 86 c 1
 25 14 113 0 237 0 c 0
 377 0 397 -32 396 -53 c 1
 396 -77 363 -96 237 -96 c 0
 179 -96 70 -91 70 -39 c 0
 70 0 105 3 122 26 c 1
 94 35 l 1
 64 15 10 0 10 -40 c 0
 11 -111 175 -114 237 -114 c 0
 452 -114 492 -51 492 25 c 0
 492 114 423 142 324 142 c 2
 143 142 l 2
 92 142 191 200 191 200 c 1
 163 207 l 1xfd
231 500 m 1
 250 500 l 1
 250 500 261 574 305 549 c 1
 330 533 339 523 380 523 c 0
 415 523 442 557 442 595 c 0
 442 642 406 662 375 662 c 0
 261 662 231 500 231 500 c 1
240 206 m 4
 196 206 181 270 181 346 c 5xfb
 180 417 188 494 240 494 c 4
 292 494 300 417 300 346 c 4
 300 270 284 206 240 206 c 4
240 510 m 4
 150 510 29 456 29 345 c 4
 29 238 150 192 240 192 c 4
 329 192 452 238 452 345 c 4
 452 456 329 510 240 510 c 4
EndSplineSet
Validated: 37
EndChar

StartChar: t
Encoding: 116 116 13
Width: 357
VWidth: 0
GlyphClass: 2
Flags: W
PickledData: "(dp1
S'com.fontlab.hintData'
p2
(dp3
S'vhints'
p4
((dp5
S'position'
p6
I66
sS'width'
p7
I133
stp8
sS'hhints'
p9
((dp10
g6
I-4
sg7
I40
s(dp11
g6
I462
sg7
I7
stp12
ss."
HStem: -10 40<139 291.426> 462 7<65 198>
VStem: 65 134<55.2418 469>
LayerCount: 2
Fore
SplineSet
65 139 m 6
 65 469 l 1
 198 469 l 1
 199 144 l 5
 202 57 230 30 268 30 c 4
 310 30 340 61 339 62 c 6
 347 56 l 5
 347 56 304 -10 206 -10 c 4
 72 -10 65 106 65 139 c 6
191 668 m 1
 201 668 l 1
 201 668 202 554 202 508 c 1
 313 508 l 1
 300 462 l 1
 10 462 l 1
 10 471 l 1
 10 471 111 544 191 668 c 1
EndSplineSet
Validated: 37
EndChar

StartChar: m
Encoding: 109 109 14
Width: 922
VWidth: 0
GlyphClass: 2
Flags: W
PickledData: "(dp1
S'com.fontlab.hintData'
p2
(dp3
S'vhints'
p4
((dp5
S'position'
p6
I97
sS'width'
p7
I134
s(dp8
g6
I213
sg7
I18
s(dp9
g6
I407
sg7
I134
s(dp10
g6
I524
sg7
I17
s(dp11
g6
I718
sg7
I134
stp12
sS'hhints'
p13
((dp14
g6
I0
sg7
I8
s(dp15
g6
I433
sg7
I6
s(dp16
g6
I480
sg7
I20
stp17
ss."
HStem: 0 8<37 49.3488 279.455 291 346 358.355 588.583 600 657 669.355 899.583 911> 433 6<10 18.9637> 480 20G<191.5 231>
VStem: 96 135<22.2129 393.474> 212 19<372 408> 406 135<22.1807 419.89> 523 17<372 374.834> 717 135<22.1807 419.89>
LayerCount: 2
Fore
SplineSet
851 363 m 6xe3
 852 59 l 1
 851 46 856 35 867 27 c 0
 876 20 886 15 897 12 c 2
 912 8 l 1
 911 5 911 2 911 0 c 1
 830 10 745 10 657 0 c 1
 657 8 l 1
 672 12 l 2
 682 14 692 19 702 27 c 0
 712 35 717 44 717 54 c 2
 717 314 l 6
 717 573 523 372 523 372 c 5
 523 408 l 5
 765 595 851 490 851 363 c 6xe3
540 363 m 6
 541 59 l 1
 540 46 545 35 556 27 c 0
 565 20 575 15 586 12 c 2
 601 8 l 1
 600 5 600 2 600 0 c 1
 519 10 434 10 346 0 c 1
 346 8 l 1
 361 12 l 2
 371 14 381 19 391 27 c 0
 401 35 406 44 406 54 c 2
 406 314 l 6
 406 573 212 372 212 372 c 5
 212 408 l 5xed
 454 595 540 490 540 363 c 6
10 439 m 1
 107 454 159 460 224 500 c 1
 231 499 l 1xe9
 231 59 l 1
 230 33 255 17 276 12 c 2
 291 8 l 1
 291 0 l 1
 209 10 125 10 37 0 c 1
 37 2 37 5 36 8 c 1
 51 12 l 2
 69 16 97 33 96 54 c 1xf1
 97 320 l 2
 97 383 61 420 10 433 c 1
 10 439 l 1
EndSplineSet
Validated: 37
EndChar

StartChar: i
Encoding: 105 105 15
Width: 301
VWidth: 0
GlyphClass: 2
Flags: W
PickledData: "(dp1
S'com.fontlab.hintData'
p2
(dp3
S'vhints'
p4
((dp5
S'position'
p6
I90
sS'width'
p7
I167
s(dp8
g6
I97
sg7
I134
stp9
sS'hhints'
p10
((dp11
g6
I0
sg7
I8
s(dp12
g6
I433
sg7
I6
s(dp13
g6
I480
sg7
I20
s(dp14
g6
I636
sg7
I176
stp15
ss."
HStem: 0 8<37 49.3488 279.455 291> 433 6<10 18.9637> 481 20G<191.5 231> 636 175<117.804 228.626>
VStem: 90 167<665.069 782.081> 96 135<22.2129 393.474>
LayerCount: 2
Fore
SplineSet
-560 1261 m 0,0,-1
90 724 m 0,1,-1
 90 771 125 811 173 811 c 0,4,-1
 221 811 257 771 257 724 c 0,7,-1
 257 676 221 636 173 636 c 0,10,-1
 125 636 90 676 90 724 c 0,1,-1
10 439 m 1,13,-1
 107 454 159 461 224 501 c 5,16,-1
 231 500 l 5,17,-1
 231 59 l 1,18,-1
 230 33 255 17 276 12 c 2,21,-1
 291 8 l 1,22,-1
 291 0 l 1,23,-1
 209 10 125 10 37 0 c 1,26,-1
 37 2 37 5 36 8 c 1,29,-1
 51 12 l 2,30,-1
 69 16 97 33 96 54 c 1,33,-1
 97 320 l 2,34,-1
 97 383 61 420 10 433 c 1,37,-1
 10 439 l 1,13,-1
EndSplineSet
Validated: 33
EndChar

StartChar: h
Encoding: 104 104 16
Width: 578
VWidth: 0
GlyphClass: 2
Flags: W
PickledData: "(dp1
S'com.fontlab.hintData'
p2
(dp3
S'vhints'
p4
((dp5
S'position'
p6
I65
sS'width'
p7
I134
s(dp8
g6
I180
sg7
I19
s(dp9
g6
I374
sg7
I134
stp10
sS'hhints'
p11
((dp12
g6
I0
sg7
I8
s(dp13
g6
I780
sg7
I20
stp14
ss."
HStem: 0 8<4 16.3551 246.583 258 314 326.355 556.583 568> 779 20G<177.5 198.027>
VStem: 64 135<22.1807 693.201> 180 19<373 409> 374 134<22.6934 420.89>
LayerCount: 2
Fore
SplineSet
508 364 m 6xd8
 508 59 l 2
 508 46 512 35 523 27 c 0
 533 20 543 15 553 12 c 2
 568 8 l 1
 568 0 l 1
 487 10 402 10 314 0 c 1
 314 8 l 1
 329 12 l 2
 339 14 349 19 359 27 c 0
 369 35 374 44 374 54 c 2
 374 315 l 5
 373 574 180 373 180 373 c 5
 180 409 l 5
 422 596 508 491 508 364 c 6xd8
199 59 m 2xe8
 199 46 203 35 214 27 c 0
 223 20 233 15 244 12 c 2
 259 8 l 1
 258 5 258 2 258 0 c 1
 177 10 92 10 4 0 c 1
 4 8 l 1
 19 12 l 2
 29 14 39 19 49 27 c 0
 59 35 64 44 64 54 c 2
 64 620 l 2
 64 651 57 676 41 695 c 0
 25 714 4 726 -22 733 c 1
 -22 739 l 1
 31 747 74 756 105 764 c 0
 136 771 164 783 191 799 c 1
 198 799 l 1
 199 59 l 2xe8
EndSplineSet
Validated: 37
EndChar

StartChar: l
Encoding: 108 108 17
Width: 301
VWidth: 0
GlyphClass: 2
Flags: HMW
PickledData: "(dp1
S'com.fontlab.hintData'
p2
(dp3
S'vhints'
p4
((dp5
S'position'
p6
I97
sS'width'
p7
I134
stp8
sS'hhints'
p9
((dp10
g6
I0
sg7
I8
s(dp11
g6
I780
sg7
I20
stp12
ss."
VStem: 96 135<46 159 620 693.201>
LayerCount: 2
Fore
SplineSet
231 59 m 2
 231 46 235 35 246 27 c 0
 255 20 265 15 276 12 c 2
 291 8 l 1
 291 0 l 1
 209 10 125 10 37 0 c 1
 37 2 37 5 36 8 c 1
 51 12 l 2
 62 14 72 19 81 27 c 1
 92 35 96 44 96 54 c 2
 97 620 l 6
 97 651 89 676 73 695 c 4
 57 714 36 726 10 733 c 5
 10 739 l 5
 64 747 106 756 137 764 c 4
 168 771 197 783 224 799 c 5
 231 799 l 5
 231 59 l 2
EndSplineSet
Validated: 33
EndChar

StartChar: q
Encoding: 113 113 18
Width: 572
VWidth: 0
GlyphClass: 2
Flags: W
PickledData: "(dp1
S'com.fontlab.hintData'
p2
(dp3
S'vhints'
p4
((dp5
S'position'
p6
I10
sS'width'
p7
I145
s(dp8
g6
I367
sg7
I28
s(dp9
g6
I497
sg7
I7
stp10
sS'hhints'
p11
((dp12
g6
I-112
sg7
I8
s(dp13
g6
I-8
sg7
I51
s(dp14
g6
I483
sg7
I24
stp15
ss."
HStem: -111 8<307 319.355 549.583 561> -10 51<229.315 308.131> 483 20G<496 503> 486 24<219.53 327.188>
VStem: 10 144<143.378 344.981> 366 28<73 242 361 443> 496 7<495.343 499>
LayerCount: 2
Back
SplineSet
928 -55 m 5
 928 395 l 1
 932 445.667 897.333 483 824 507 c 1
 852 507 877.167 503.167 899.5 495.5 c 0
 921.833 487.833 937.333 480 946 472 c 2
 959 460 l 1
 969 449.333 979.333 443.5 990 442.5 c 0
 1000.67 441.5 1009.84 444.333 1017.5 451 c 0
 1025.17 457.667 1032.17 465.167 1038.5 473.5 c 0
 1044.87 481.833 1049.7 489.5 1053 496.5 c 2
 1058 507 l 1
 1065 503 l 1
 1065 -52 l 2
 1065 -74.6666 1079.67 -90.3333 1109 -99 c 1
 1124 -103 l 1
 1124 -104.333 1123.83 -105.833 1123.5 -107.5 c 0
 1123.17 -109.166 1123 -110.332 1123 -111 c 1
 1041.67 -101 957 -101 869 -111 c 1
 869 -103 l 1
 884 -99 l 2
 894 -97 904 -91.5 914 -82.5 c 0
 924 -73.5 928.667 -64.3333 928 -55 c 5
994 395 m 4
767 -8 m 4
 705.665 -8 657.832 14.8333 623.5 60.5 c 0
 589.167 106.167 572 163.333 572 232 c 0
 572 309.333 595.5 374.5 642.5 427.5 c 0
 689.5 480.5 750 507 824 507 c 0
 866 507 899 493.667 923 467 c 0
 947 440.333 958.333 405 957 361 c 1
 956 242 l 1
 956 152.667 942.833 88.6667 916.5 50 c 0
 890.166 11.3333 840.333 -8 767 -8 c 4
928 248 m 6
 928 323.954 926.225 371.94 922.675 391.96 c 1
 906.196 449.536 873.638 479.883 825 483 c 1
 752.333 483 716 413 716 273 c 0
 716 215.667 727.333 163.167 750 115.5 c 0
 772.671 67.8333 805.338 43.6667 848 43 c 0
 858 43 866.833 44 874.5 46 c 0
 882.18 48 888.847 52 894.5 58 c 0
 900.167 64 905 69.6667 909 75 c 0
 913 80.3333 916.167 88.3333 918.5 99 c 0
 920.833 109.667 922.833 118.167 924.5 124.5 c 0
 926.167 130.833 927.167 141 927.5 155 c 0
 927.833 169 928 179.167 928 185.5 c 2
 928 218 l 1
 928 248 l 6
EndSplineSet
Fore
SplineSet
262 510 m 1xde
 375 510 387.333 446.003 437 446 c 0
 470.667 446 496 501.333 496 503 c 1xee
 503 499 l 1
 503 -52 l 2
 503 -78 526 -93 547 -99 c 2
 562 -103 l 1
 562 -106 561 -109 561 -111 c 1
 480 -101 395 -101 307 -111 c 1
 307 -103 l 1
 322 -99 l 2
 339 -95 367 -75 366 -55 c 1
 366 395 l 1
 370 443 336 486 262 510 c 1xde
432 395 m 0
205 -10 m 0
 78 -10 10 101 10 232 c 0
 10 383 111 510 262 510 c 0xde
 346 510 397 448 395 361 c 1
 394 242 l 1
 394 73 358 -10 205 -10 c 0
366 248 m 0
 366 361 377 486 263 486 c 0
 191 486 154 413 154 273 c 0
 154 174 193 42 286 41 c 1
 376 39 366 159 366 248 c 0
EndSplineSet
Validated: 37
EndChar

StartChar: j
Encoding: 106 106 19
Width: 307
VWidth: 0
GlyphClass: 2
Flags: W
PickledData: "(dp1
S'com.fontlab.hintData'
p2
(dp3
S'vhints'
p4
((dp5
S'position'
p6
I10
sS'width'
p7
I121
s(dp8
g6
I131
sg7
I167
s(dp9
g6
I138
sg7
I134
stp10
sS'hhints'
p11
((dp12
g6
I-116
sg7
I170
s(dp13
g6
I433
sg7
I6
s(dp14
g6
I636
sg7
I176
stp15
ss."
HStem: -116 170<52.0532 117.735> 433 6<50 59.0545> 636 175<158.234 268.626>
VStem: 10 121<-73.0504 41.2063> 131 166<665.069 782.081> 138 133<59.1584 134 320 389.812>
LayerCount: 2
Fore
SplineSet
271 120 m 2xf4
 271 500 l 5
 264 501 l 5
 200 461 148 454 50 439 c 1
 50 433 l 1
 102 420 137 383 137 320 c 2
 138 134 l 2
 138 78 184 37 184 -29 c 0
 184 -80 125 -109 125 -53 c 1
 124 -29 131 -30 131 -5 c 0
 131 41 100 54 67 54 c 1
 31 52 10 28 10 -10 c 0
 10 -53 48 -116 106 -116 c 0
 234 -116 271 52 271 120 c 2xf4
131 724 m 0xe8
 131 771 165 811 213 811 c 0
 261 811 297 771 297 724 c 0
 297 676 261 636 213 636 c 0
 165 636 131 676 131 724 c 0xe8
EndSplineSet
Validated: 41
EndChar

StartChar: u
Encoding: 117 117 20
Width: 622
VWidth: 0
GlyphClass: 2
Flags: W
PickledData: "(dp1
S'com.fontlab.hintData'
p2
(dp3
S'vhints'
p4
((dp5
S'position'
p6
I70
sS'width'
p7
I134
s(dp8
g6
I380
sg7
I134
stp9
sS'hhints'
p10
((dp11
g6
I-1
sg7
I21
s(dp12
g6
I39
sg7
I9
s(dp13
g6
I492
sg7
I8
stp14
ss."
HStem: 36 12<610.452 635.996> 480 20G<242.5 264 552.5 574>
VStem: 130 134<79.5632 391.437> 438 136<65.4666 394.201> 636 1<38.0469 40.8594 43 44.907>
LayerCount: 2
Fore
SplineSet
544 500 m 1
 544 109 l 2
 544 95 551 81 561 70 c 0
 571 60 581 52 591 48 c 0
 601 44 606 43 606 45 c 1
 607 43 607 42 607 41 c 0
 607 40 607 39 606 38 c 0
 606 37 605 36 605 36 c 1
 584 38 551 34 506 24 c 0
 462 14 431 4 415 -4 c 1
 408 0 l 1
 409 321 l 2
 409.07 352 401 377 385 396 c 0
 369 415 348 427 322 434 c 1
 322 440 l 1
 376 448 418 457 449 465 c 0
 480 472 509 484 536 500 c 1
 544 500 l 1
234 500 m 1
 234 185.679 l 2
 234 -72.3223 428 127 428 127 c 1
 428 91 l 1
 186 -95 100.691 8.00098 100 136 c 2
 99 321 l 2
 98.8984 352 91 377 75 396 c 0
 59 415 38 427 12 434 c 1
 12 440 l 1
 66 448 108 457 139 465 c 0
 170 472 199 484 226 500 c 1
 234 500 l 1
EndSplineSet
EndChar

StartChar: v
Encoding: 118 118 21
Width: 628
VWidth: 0
GlyphClass: 2
Flags: W
PickledData: "(dp1
S'com.fontlab.hintData'
p2
(dp3
S'hhints'
p4
((dp5
S'position'
p6
I492
sS'width'
p7
I8
stp8
ss."
HStem: 487 13<237.019 249> 492 8<363 378.925 594.871 617>
LayerCount: 2
Back
SplineSet
274.25 -10 m 5
 282.25 -10 l 1
266 -11 m 5
 70 446 l 2
 60 468.667 45 482.333 25 487 c 1
 10 492 l 1
 10 500 l 1
 97.3333 489.333 182 489.333 264 500 c 1
 264 492 l 1
 249 487 l 1
 231 483 227 468 237 442 c 2
 349 157 l 1
 266 -11 l 5
433 319 m 5
 266 -11 l 1
 259 5 l 1
 413 327 l 2
 423 347.667 429.667 366.5 433 383.5 c 0
 436.333 400.5 436.833 414.667 434.5 426 c 0
 432.167 437.335 428.5 447.168 423.5 455.5 c 0
 418.5 463.835 412.5 470.168 405.5 474.5 c 0
 398.5 478.833 391.833 482.5 385.5 485.5 c 0
 379.167 488.5 373.833 490.333 369.5 491 c 2
 363 492 l 1
 363 500 l 1
 451 488.667 535.667 488.667 617 500 c 1
 618 492 l 1
 599.333 492 580.167 486 560.5 474 c 0
 540.833 462 523.833 447.5 509.5 430.5 c 0
 495.167 413.5 482 396.5 470 379.5 c 0
 458 362.5 448.833 348.167 442.5 336.5 c 2
 433 319 l 5
EndSplineSet
Fore
SplineSet
269.872 -10.001 m 21x80
 433 319 l 5
 433 319 518 491 618 492 c 5
 618 492 617 497 617 500 c 5
 536 489 451 489 363 500 c 5
 363 492 l 5x40
 363 492 484.119 478.9 413 327 c 6
 340.376 171.885 l 5
 237 442 l 6
 227.045 468.013 228 482 249 487 c 5x80
 264 492 l 5
 264 500 l 5
 182 489 98 489 10 500 c 5
 10 492 l 5x40
 25 487 l 5
 42 483 61.1201 467.051 70 446 c 6
 262.37 -10.001 l 13
 269.872 -10.001 l 21x80
269.857 -10.001 m 5
 262.475 -10.001 l 5
269.872 -10.001 m 5
 269.857 -10.001 l 5
 348.818 149.824 l 5
 340.376 171.885 l 5
 259.091 -1.72754 l 5
 262.475 -10.001 l 5
 262.37 -10.001 l 5
EndSplineSet
EndChar

StartChar: w
Encoding: 119 119 22
Width: 982
VWidth: 0
GlyphClass: 2
Flags: W
PickledData: "(dp1
S'com.fontlab.hintData'
p2
(dp3
S'hhints'
p4
((dp5
S'position'
p6
I492
sS'width'
p7
I8
stp8
ss."
HStem: 487 13<237.019 249> 492 8<717 733.163 948.871 971>
LayerCount: 2
Fore
SplineSet
619 -3 m 1x80
 429 446 l 2
 420 467 399 484 382 488 c 2
 363 492 l 1
 363 500 l 1
 451 489 536 489 617 500 c 1
 617 497 617 494 618 492 c 1x40
 603 487 l 1
 582 482 580 468 591 442 c 2
 702 157 l 1
 619 -3 l 1x80
787 319 m 1
 620 -3 l 1
 613 13 l 1
 767 327 l 2
 840 478 717 492 717 492 c 1
 717 500 l 1
 805 489 890 489 971 500 c 1
 971 497 972 492 972 492 c 1
 872 491 787 319 787 319 c 1
266 -3 m 1
 70 446 l 2
 61 467 42 483 25 487 c 1x80
 10 492 l 1
 10 500 l 1
 98 489 182 489 264 500 c 1
 264 492 l 1x40
 249 487 l 1x80
 228 482 227 468 237 442 c 2
 349 157 l 1
 266 -3 l 1
433 319 m 1
 266 -3 l 1
 259 13 l 1
 413 327 l 2
 486 478 363 492 363 492 c 1
 363 500 l 1
 451 489 536 489 617 500 c 1
 617 497 618 492 618 492 c 1x40
 518 491 433 319 433 319 c 1
EndSplineSet
Validated: 37
EndChar

StartChar: x
Encoding: 120 120 23
Width: 588
VWidth: 0
GlyphClass: 2
Flags: W
PickledData: "(dp1
S'com.fontlab.hintData'
p2
(dp3
S'hhints'
p4
((dp5
S'position'
p6
I0
sS'width'
p7
I8
s(dp8
g6
I495
sg7
I8
stp9
ss."
HStem: 0 8<240.645 253 334 345.417 575.645 588> 491 13<237.019 249> 495 8<323 331.241 554.114 577>
LayerCount: 2
Fore
SplineSet
234 159 m 1xa0
 149 17 253 8 253 8 c 1
 253 0 l 1
 165 10 80 10 -1 0 c 1
 -0 2 -1 8 -1 8 c 1
 98 9 208 159 208 159 c 1
 352 343 l 1
 437 466 323 495 323 495 c 1
 323 503 l 1
 411 492 496 492 577 503 c 1
 577 500 578 495 578 495 c 1
 485 495 377 343 377 343 c 1
 234 159 l 1xa0
524 59 m 5
 524 59 551 18 573 12 c 6
 588 8 l 5
 588 0 l 5
 500 10 415 10 334 0 c 5
 334 8 l 5
 349 12 l 6
 369 17 376.266 37.4355 361 58 c 6
 70 450 l 6
 55 470 42 487 25 491 c 5
 10 496 l 5
 10 504 l 5
 98 493 182 493 264 504 c 5
 264 496 l 5
 249 491 l 5xc0
 228 486 219 471 237 446 c 6
 524 59 l 5
EndSplineSet
EndChar

StartChar: y
Encoding: 121 121 24
Width: 623
VWidth: 0
GlyphClass: 2
Flags: W
PickledData: "(dp1
S'com.fontlab.hintData'
p2
(dp3
S'vhints'
p4
((dp5
S'position'
p6
I49
sS'width'
p7
I122
stp8
sS'hhints'
p9
((dp10
g6
I-138
sg7
I147
s(dp11
g6
I0
sg7
I21
s(dp12
g6
I492
sg7
I8
stp13
ss."
HStem: -138 81.5908<117.5 228.204> 487 13<237.019 249> 492 8<363 378.925 594.871 617>
LayerCount: 2
Back
SplineSet
920.872 -10.001 m 21
 1084 319 l 2
 1086 323.667 1089.17 329.833 1093.5 337.5 c 0
 1097.85 345.167 1106.68 359 1120 379 c 0
 1133.33 399 1146.83 416.5 1160.5 431.5 c 0
 1174.17 446.5 1191 460.333 1211 473 c 0
 1231 485.667 1250.33 492 1269 492 c 1
 1268.33 495.333 1268 498 1268 500 c 1
 1186.67 488.667 1102 488.667 1014 500 c 1
 1014 492 l 1x0c
 1026.5 489.5 l 2
 1031.5 488.5 1039.67 484.5 1051 477.5 c 0
 1062.35 470.5 1071.18 461.667 1077.5 451 c 0
 1083.83 440.331 1086.5 424.164 1085.5 402.5 c 0
 1084.5 380.832 1077.33 355.666 1064 327 c 2
 991.376 171.885 l 1
 888 442 l 2
 878 468 882 483 900 487 c 1x14
 915 492 l 1
 915 500 l 1
 833 489.333 748.333 489.333 661 500 c 1
 661 492 l 1x0c
 676 487 l 1x14
 696.667 482.328 711.667 468.661 721 446 c 2
 913.37 -10.001 l 1
 920.872 -10.001 l 21
866 -52 m 4x84
 860.667 -52 857 -48.6667 855 -42 c 0
 847 -16 837.167 0.5 825.5 7.5 c 0
 813.833 14.5 797.667 17.3333 777 16 c 1
 758.333 16 742.667 8 730 -8 c 0
 717.333 -24 711 -43 711 -65 c 0
 711 -89 717.5 -108.833 730.5 -124.5 c 0
 743.5 -140.167 761.333 -148 784 -148 c 0
 800.657 -148 816.017 -144.273 830.081 -136.82 c 0
 844.151 -129.367 856.614 -118.399 867.471 -103.916 c 0
 878.327 -89.4322 887.205 -76.2262 894.103 -64.2976 c 0
 901.001 -52.3691 908.771 -37.0808 917.412 -18.4328 c 0
 926.054 0.215233 932.028 12.5818 935.334 18.667 c 1
 942 71 l 1
 939.333 67 933.333 54 924 32 c 0
 914.66 10 904.826 -9.5 894.5 -26.5 c 0
 884.167 -43.5 874.667 -52 866 -52 c 4x84
249 -38 m 1xb0
 243.5 -49 l 2
 241.164 -53.6667 235.831 -61.6667 227.5 -73 c 0
 219.167 -84.3333 210.667 -94.3333 202 -103 c 0
 193.333 -111.667 182.333 -119.667 169 -127 c 0
 155.666 -134.333 142.333 -138 129 -138 c 0
 108.333 -138 89.8333 -130.833 73.5 -116.5 c 0
 57.1667 -102.167 49 -81.6667 49 -55 c 0
 49 -33.6667 55.6667 -17.6667 69 -7 c 0
 82.3333 3.66667 97.3333 9 114 9 c 0
 126 9 136.667 5.83333 146 -0.5 c 0
 155.333 -6.83333 161.833 -13.3333 165.5 -20 c 2
 171 -30 l 2
 177.667 -42.6667 184 -51.3333 190 -56 c 0
 196 -60.6667 202.167 -60.6667 208.5 -56 c 0
 214.833 -51.3334 220 -46.6667 224 -42 c 0
 228 -37.3333 233.333 -29.6667 240 -19 c 1
 413 327 l 2
 426.333 355 433.833 379.833 435.5 401.5 c 0
 437.167 423.167 434.333 439.5 427 450.5 c 0
 419.667 461.5 411.167 470.333 401.5 477 c 0
 391.833 483.667 383 487.833 375 489.5 c 2
 363 492 l 1
 363 500 l 1
 451 488.667 535.667 488.667 617 500 c 1
 618 492 l 1
 599.333 492 580.167 486 560.5 474 c 0
 540.833 462 523.833 447.5 509.5 430.5 c 0
 495.167 413.5 482 396.5 470 379.5 c 0
 458 362.5 448.833 348.167 442.5 336.5 c 2
 433 319 l 1
 249 -38 l 1xb0
269 0 m 1x70
 70 446 l 2
 58.6667 471.334 38.6667 486.668 10 492 c 1
 10 500 l 1
 97.3333 489.333 182 489.333 264 500 c 1
 264 492 l 1
 249 487 l 2
 239 483 233.167 477.667 231.5 471 c 0
 229.833 464.332 231.667 454.665 237 442 c 2
 349 157 l 1
 269 0 l 1x70
EndSplineSet
Fore
SplineSet
269 34.5 m 17x80
 269 34.5 244.955 -56.4092 211.454 -56.4092 c 1
 199.455 -56.4092 183.955 -51.25 178 -30 c 1
 178 -30 170.955 9 121 9 c 0
 93 9 56 -8 56 -55 c 0
 56 -112 99 -138 136 -138 c 1
 221.955 -138 269.872 -9.12144 269.872 -10.001 c 1
 269.455 -7.75 277.503 5.34961 288.261 27.083 c 1
 269 34.5 l 17x80
269.872 -10.001 m 17
 433 319 l 1
 433 319 518 491 618 492 c 1
 618 492 617 497 617 500 c 1
 536 489 451 489 363 500 c 1
 363 492 l 1xa0
 363 492 484.119 478.9 413 327 c 2
 340.376 171.885 l 1
 237 442 l 2
 227.045 468.013 228 482 249 487 c 1xc0
 264 492 l 1
 264 500 l 1
 182 489 98 489 10 500 c 1
 10 492 l 1xa0
 25 487 l 1xc0
 42 483 61.1201 467.051 70 446 c 2
 262.37 -10.001 l 9
 269.872 -10.001 l 17
269.872 -10.001 m 1
 269.857 -10.001 l 1
262.37 -10.001 m 1
EndSplineSet
EndChar

StartChar: T
Encoding: 84 84 25
Width: 810
VWidth: 0
GlyphClass: 2
Flags: W
PickledData: "(dp1
S'com.fontlab.hintData'
p2
(dp3
S'vhints'
p4
((dp5
S'position'
p6
I27
sS'width'
p7
I8
s(dp8
g6
I326
sg7
I174
s(dp9
g6
I793
sg7
I8
stp10
sS'hhints'
p11
((dp12
g6
I0
sg7
I8
s(dp13
g6
I779
sg7
I19
stp14
ss."
HStem: 0 8<233 246.723 578.545 592> 783 15<290.652 535.693>
VStem: 27 8<536 546.613> 326 174<40.4903 798> 793 8<536 546.613>
LayerCount: 2
Fore
SplineSet
233 0 m 1
 233 8 l 1
 233 8 326 22 326 85 c 2
 326 798 l 1
 499 798 l 1
 500 85 l 2
 500 21 592 8 592 8 c 1
 592 0 l 1
 500 21 327 19 233 0 c 1
470 783 m 6
 358 783 l 6
 101 783 35 536 35 536 c 1
 27 536 l 1
 79 814 l 1
 79 814 119 800 415 800 c 0
 711 800 749 814 749 814 c 1
 801 536 l 1
 793 536 l 1
 793 536 727 783 470 783 c 6
EndSplineSet
EndChar

StartChar: L
Encoding: 76 76 26
Width: 741
VWidth: 0
GlyphClass: 2
Flags: W
PickledData: "(dp1
S'com.fontlab.hintData'
p2
(dp3
S'vhints'
p4
((dp5
S'position'
p6
I132
sS'width'
p7
I174
stp8
sS'hhints'
p9
((dp10
g6
I0
sg7
I8
s(dp11
g6
I0
sg7
I21
s(dp12
g6
I792
sg7
I8
stp13
ss."
HStem: 0 21<351.862 492.805> 0 8<39 55.1994> 792 8<38 51.7231 384.411 398>
VStem: 132 174<50.3241 120 715 759.069>
LayerCount: 2
Fore
SplineSet
488 536 m 0,0,-1
306 120 m 2,1,-1
 305 715 l 2,2,-1
 305 778 398 792 398 792 c 1,5,-1
 398 800 l 1,6,-1
 305 778 132 781 38 800 c 1,9,-1
 38 792 l 1,10,-1
 38 792 131 778 131 715 c 2,13,-1
 132 85 l 2,14,-1
 132 22 39 8 39 8 c 1,17,-1
 39 0 l 1,18,-1
 681 0 l 1,19,-1
 722 285 l 1,20,-1
 714 285 l 1,21,-1
 714 285 673 21 416 21 c 0,24,-1
 380 21 306 21 306 120 c 2,1,-1
EndSplineSet
Validated: 41
EndChar

StartChar: H
Encoding: 72 72 27
Width: 879
VWidth: 0
GlyphClass: 2
Flags: W
PickledData: "(dp1
S'com.fontlab.hintData'
p2
(dp3
S'vhints'
p4
((dp5
S'position'
p6
I118
sS'width'
p7
I174
s(dp8
g6
I204
sg7
I88
s(dp9
g6
I596
sg7
I174
stp10
sS'hhints'
p11
((dp12
g6
I0
sg7
I8
s(dp13
g6
I403
sg7
I31
s(dp14
g6
I792
sg7
I8
stp15
ss."
HStem: 0 8<24 37.7231 370.411 384 503 516.723 848.545 862> 403 31<204 710> 792 8<24 37.7231 370.411 384 503 516.723 848.545 862>
VStem: 117 174<40.4903 403 434 760.775> 204 87<403 434> 596 174<40.4903 403 434 760.775>
LayerCount: 2
Fore
SplineSet
204 434 m 1xec
 710 434 l 1
 710 403 l 1
 204 403 l 1
 204 434 l 1xec
596 85 m 2
 596 715 l 2
 596 778 503 792 503 792 c 1
 503 800 l 1
 597 781 770 778 862 800 c 1
 862 792 l 1
 862 792 770 778 770 715 c 2
 770 85 l 2
 770 21 862 8 862 8 c 1
 862 0 l 1
 770 21 597 19 503 0 c 1
 503 8 l 1
 503 8 596 22 596 85 c 2
117 85 m 2xf4
 117 715 l 2
 117 778 24 792 24 792 c 1
 24 800 l 1
 118 781 291 778 384 800 c 1
 384 792 l 1
 384 792 291 778 291 715 c 2
 291 85 l 2
 291 21 384 8 384 8 c 1
 384 0 l 1
 291 21 118 19 24 0 c 1
 24 8 l 1
 24 8 117 22 117 85 c 2xf4
EndSplineSet
Validated: 37
EndChar

StartChar: k
Encoding: 107 107 28
Width: 578
VWidth: 0
Flags: W
HStem: 0 8<30 42.3551 272.583 284 375 386.417 616.645 629> 495 8<570.398 589> 779 20G<203.5 224.027>
VStem: 90 135<22.1807 693.201>
LayerCount: 2
Fore
SplineSet
254.645 256.5 m 13
 354.756 342.5 l 21
 565 59 l 5
 565 59 592 18 614 12 c 6
 629 8 l 5
 629 0 l 5
 541 10 456 10 375 0 c 5
 375 8 l 5
 390 12 l 6
 410 17 417.383 37.2783 402 58 c 6
 254.645 256.5 l 13
199 199 m 13
 173 199 l 21
 231.588 246.344 315 311 347 343 c 5
 454 450 335 495 335 495 c 5
 335 503 l 5
 423 492 508 492 589 503 c 5
 589 500 590 495 590 495 c 5
 545 495 438 412 361 335 c 5
 199 199 l 13
225 59 m 6
 225 46 229 35 240 27 c 4
 249 20 259 15 270 12 c 6
 285 8 l 5
 284 5 284 2 284 0 c 5
 203 10 118 10 30 0 c 5
 30 8 l 5
 45 12 l 6
 55 14 65 19 75 27 c 4
 85 35 90 44 90 54 c 6
 90 620 l 6
 90 651 83 676 67 695 c 4
 51 714 30 726 4 733 c 5
 4 739 l 5
 57 747 100 756 131 764 c 4
 162 771 190 783 217 799 c 5
 224 799 l 5
 225 59 l 6
EndSplineSet
EndChar

StartChar: z
Encoding: 122 122 29
Width: 588
VWidth: 0
Flags: W
HStem: 0 21<174 196 212.833 300.242> 0 13<25 34.1568> 481.059 18.9521<293.449 423.924> 493 7.33984<553 567.673>
VStem: 75.7539 7.2207<261.751 271.174> 529.833 9<250.935 264>
LayerCount: 2
Fore
SplineSet
174 21 m 17x8c
 212.833 21 l 2x8c
 469.835 21 529.833 264 529.833 264 c 1
 538.833 264 l 1
 493 0 l 1
 493 0 469.833 0 173.833 0 c 9x4c
 174 21 l 17x8c
424.075 481.059 m 17x2c
 372.481 481.059 l 2
 140.539 481.059 82.9746 261.751 82.9746 261.751 c 1
 75.7539 261.751 l 1
 119.03 500.011 l 1
 119.03 500.011 156.784 500.011 423.924 500.011 c 9
 424.075 481.059 l 17x2c
196 0 m 5x9c
 115.291 0.352539 99.3753 -0.345215 10 0 c 1
 10 8 l 1
 25 13 l 1x4c
 42 17 96.0508 97.5947 110.5 118 c 2
 380.999 500 l 1
 567.673 500.34 l 5
 568 493 l 5
 553 489 l 6
 531 483 504 442 504 442 c 5
 196 0 l 5x9c
EndSplineSet
EndChar

StartChar: B
Encoding: 66 66 30
Width: 747
VWidth: 0
Flags: W
HStem: 0 16.9854<309.75 441.666> 0 8<10 26.176> 412.534 11.9648<264.162 458.496> 783.889 16.9863<278.34 411.301> 792.5 8<11.5 27.3917>
VStem: 103 174<39.2837 412.534 424.499 762.925> 277.037 0.962891<775.782 793> 502.162 176.635<514.113 694.812> 532.398 183<119.004 302.947>
LayerCount: 2
Back
SplineSet
1160.7 412.537 m 13xfa
 1062.2 412.535 l 5
 1062.21 412.543 1062.36 424.499 1062.36 424.499 c 13
 1160.7 424.035 l 21
 1160.7 424.033 1513.6 452 1513.6 217.035 c 5
 1513.6 -5 1283.7 0 1160.7 0 c 5
 1121.37 1.16602 1111.04 3.71289 1077.33 7.35938 c 4
 1072.53 21.8154 l 5
 1072.53 21.8154 1103.2 12.9854 1160.7 12.9854 c 5
 1278.2 12.9854 1330.6 45 1330.6 213.035 c 5
 1329.82 367.705 1262.95 412.537 1160.7 412.537 c 13xfa
1160.7 424.035 m 21
 1256.7 424.043 1300.36 501.999 1300.36 613.499 c 5
 1298.37 707.818 1266.08 787.889 1158.58 787.889 c 5
 1097.46 787.889 1075.21 779.782 1075.21 779.782 c 5
 1075.24 793 l 4
 1108.95 796.646 1119.25 799.709 1158.58 800.875 c 5
 1281.58 800.875 1477.31 780.731 1477 613 c 5xfc
 1476.36 412.893 1306.7 412.534 1160.7 412.534 c 13
 1062.2 412.534 l 29
 1062.26 417.2 1062.53 424.963 1062.36 424.499 c 4
 1062.2 424.035 1122.35 424.216 1160.7 424.035 c 21
1076.2 793.112 m 5
 1075.2 85 l 5
 1074.92 20.7432 1135.2 12.9854 1160.7 12.9854 c 5
 1160.7 0 l 5
 1107.95 0 1051.2 14.25 993.952 15.0098 c 5
 925.558 15.0293 856.466 9.75586 808.202 0 c 5
 808.202 8 l 5
 808.202 8 901.052 22 901.202 85 c 6
 902.702 715.5 l 6
 902.852 778.5 809.702 792.5 809.702 792.5 c 5
 809.702 800.5 l 5
 856.308 791.08 920.243 786.535 984.202 786.561 c 5
 1019.05 786.803 1048.74 789.931 1076.2 793.112 c 5
EndSplineSet
Fore
SplineSet
362.497 412.537 m 13xa680
 264 412.535 l 5
 264.003 412.543 264.162 424.499 264.162 424.499 c 13
 362.5 424.035 l 21
 362.5 424.033 715.398 452 715.398 217.035 c 5
 715.398 -5 485.5 0 362.5 0 c 5
 323.167 1.16602 312.838 3.71289 279.125 7.35938 c 4
 274.327 26.8154 l 5
 274.327 26.8154 305 16.9854 362.5 16.9854 c 5
 480 16.9854 532.398 45 532.398 213.035 c 5
 531.622 367.705 464.75 412.537 362.497 412.537 c 13xa680
362.5 424.035 m 17
 458.496 424.043 502.162 501.999 502.162 613.499 c 1
 500.164 707.818 467.881 783.889 360.381 783.889 c 1
 299.256 783.889 277.005 775.782 277.005 775.782 c 1
 277.037 793 l 0
 310.75 796.646 321.047 799.709 360.381 800.875 c 1
 483.381 800.875 679.104 780.731 678.797 613 c 1x37
 678.158 412.892 508.5 412.534 362.498 412.534 c 9
 263.999 412.534 l 25
 264.062 417.2 264.324 424.963 264.162 424.499 c 0
 264 424.035 324.148 424.216 362.5 424.035 c 17
278 793.112 m 1
 277 85 l 1
 276.717 20.7432 337 16.9854 362.5 16.9854 c 1
 362.5 0 l 1xae
 309.75 0 253 14.25 195.75 15.0098 c 1
 127.355 15.0293 58.2637 9.75586 10 0 c 1
 10 8 l 1
 10 8 102.85 22 103 85 c 2
 104.5 715.5 l 2
 104.649 778.5 11.5 792.5 11.5 792.5 c 1
 11.5 800.5 l 1x6e
 58.1055 791.08 122.041 786.535 186 786.561 c 1
 220.845 786.802 250.541 789.931 278 793.112 c 1
EndSplineSet
EndChar

StartChar: P
Encoding: 80 80 31
Width: 697
VWidth: 0
Flags: W
HStem: 0 8<11.5088 25.232 357.92 371.509> 348.269 11.502<264.391 395.086> 783.014 16.9863<279.077 406.424> 791.5 8<11.666 27.5577>
VStem: 104.509 174<40.489 85 714.5 760.274> 277.977 0.585938<774.403 792.288> 502.327 176.636<490.275 672.751>
LayerCount: 2
Fore
SplineSet
362.665 359.771 m 13xe6
 362.665 359.771 264.165 359.771 264.327 360.233 c 5
 264.164 348.269 l 13
 362.663 348.269 l 21
 384.165 348.269 678.963 348.021 678.963 584.817 c 5
 679.27 752.55 485.695 800 362.695 800 c 5
 323.362 798.834 311.689 795.935 277.977 792.288 c 4
 277.891 774.403 l 5
 277.891 774.403 305.195 783.014 362.695 783.014 c 5
 470.195 783.014 500.329 679.636 502.327 585.317 c 5
 502.327 473.817 456.165 359.771 362.665 359.771 c 13xe6
278.562 792.35 m 5
 250.783 789.013 220.225 785.797 186.166 785.561 c 5
 122.207 785.535 58.2715 790.08 11.666 799.5 c 5
 11.666 791.5 l 5
 11.666 791.5 105.281 777.497 104.666 714.5 c 6
 104.509 85 l 6
 104.493 22 11.5088 8 11.5088 8 c 5
 11.5088 0 l 5
 105.509 19 278.509 21 371.509 0 c 5
 371.509 8 l 5
 371.509 8 278.509 21 278.509 84.9961 c 5xda
 278.562 792.35 l 5
EndSplineSet
EndChar

StartChar: C
Encoding: 67 67 32
Width: 744
VWidth: 0
Flags: W
HStem: -10 17<331.925 452.026> 793 17<340.537 449.202>
VStem: 0 189<271.768 536.469> 674.5 8.5<17 32.3129 283.178 298.833 474 504.655 763.496 788>
LayerCount: 2
Fore
SplineSet
392 810 m 1
 316 810 1.0498 717.689 0 406 c 1
 1.15918 145.176 217 -10 392 -10 c 1
 519 -10 590 69 637 69 c 1
 665.5 69 674.572 16.9893 674.572 16.9893 c 9
 683 17 l 25
 683.166 298.833 l 25
 674.565 298.87 l 17
 674.565 298.87 622 7 391 7 c 1
 184 7 189 233 189 411 c 1
 189 548 189 793 392 793 c 1
 577 793 674.5 551 674.5 474 c 9
 683 474 l 25
 683 788 l 25
 674.625 788 l 17
 674.625 788 674.375 731 632 731 c 1
 597.875 731 521.5 810 392 810 c 1
EndSplineSet
EndChar

StartChar: R
Encoding: 82 82 33
Width: 730
VWidth: 0
Flags: W
HStem: 0 8<16.5088 30.232 362.92 376.509 514.236 525.734 760.209 781> 347.833 11.964<304.099 405.558> 783.014 16.986<284.077 411.226> 791.5 8<16.666 32.5577>
VStem: 109.509 174<40.489 85 714.5 760.274> 282.977 0.585022<774.403 792.288> 503.327 176.636<498.322 672.751>
LayerCount: 2
Fore
SplineSet
663 152.333 m 1xc2
 580 332.5 476 360.5 404 360.5 c 1
 404 360.5 304.437 361.379 304.102 359.333 c 9
 205.764 359.797 l 17
 205.764 359.797 205.605 347.841 205.602 347.833 c 1
 304.099 347.835 l 17
 405.558 348.752 392.259 314.448 532 45 c 1
 543.5 24.5 537.325 14.1569 529.236 12 c 2
 514.236 8 l 1
 514.236 0 l 1
 595.236 10 693 10 781 0 c 1
 781 8.00195 l 1
 722.667 9 698 72 663 152.333 c 1xc2
296 389 m 1
312.665 359.771 m 9
 312.665 359.771 269.165 359.771 269.327 360.233 c 1
 269.164 348.269 l 9
 312.663 348.269 l 17
 334.165 348.269 679.963 348.021 679.963 584.817 c 1
 680.27 752.55 490.695 800 367.695 800 c 1
 328.362 798.834 316.689 795.935 282.977 792.288 c 0
 282.891 774.403 l 1
 282.891 774.403 310.195 783.014 367.695 783.014 c 1xe6
 475.195 783.014 501.329 679.636 503.327 585.317 c 1
 503.327 473.817 406.165 359.771 312.665 359.771 c 9
283.562 792.35 m 1
 255.783 789.013 225.226 785.797 191.166 785.561 c 1
 127.207 785.535 63.2715 790.08 16.666 799.5 c 1
 16.666 791.5 l 1
 16.666 791.5 110.281 777.497 109.666 714.5 c 2
 109.509 85 l 2
 109.493 22 16.5088 8 16.5088 8 c 1
 16.5088 0 l 1
 110.509 19 283.509 21 376.509 0 c 1
 376.509 8 l 1
 376.509 8 283.509 21 283.509 84.9961 c 1xda
 283.562 792.35 l 1
EndSplineSet
EndChar
